<svg xmlns="http://www.w3.org/2000/svg" viewBox="0 0 516.52 230.48"><defs><style>.cls-1{isolation:isolate;font-size:92.64px;fill:#1d71b8;font-family:Roboto-Black, Roboto;font-weight:800;}.cls-2{letter-spacing:0.01em;}.cls-3,.cls-4,.cls-5{fill:none;stroke-miterlimit:10;stroke-width:8px;}.cls-3{stroke:#009fe3;}.cls-4{stroke:#ec643f;}.cls-5{stroke:#36a9e1;}</style></defs><g id="Lag_2" data-name="Lag 2"><g id="Lag_1-2" data-name="Lag 1"><text class="cls-1" transform="translate(0.8 205.38) scale(0.85 1)">UNGBA<tspan class="cls-2" x="312.6" y="0">L</tspan><tspan x="363.67" y="0">ANCE</tspan></text><path class="cls-3" d="M.76,110.79a245.2,245.2,0,0,0,55.85,4.89c10.44,0,34.77-1.4,65.63-10.48,27.82-7.69,28.47-12.58,66.28-26.08,26.73-9.09,39.77-14,58.89-16.07,27.82-2.8,50.2,2.09,67.59,5.59,20.43,4.19,34.77,9.78,61.93,21.19,35.86,14,38.47,18.4,55.2,24,18.69,5.59,45.85,10.48,83.66,3.49"/><path class="cls-4" d="M.76,52.57a245.2,245.2,0,0,0,55.85,4.89c10.44,0,34.77-1.4,65.63-10.48,27.82-7.69,28.47-12.58,66.28-26.08,26.73-9.09,39.77-14,58.89-16.07C275.23,2,297.61,6.92,315,10.42c20.43,4.19,34.77,9.78,61.93,21.19,35.86,14,38.47,18.4,55.2,24,18.69,5.59,45.85,10.48,83.66,3.49"/><path class="cls-5" d="M.76,81.45a245.2,245.2,0,0,0,55.85,4.89c10.44,0,34.77-1.4,65.63-10.48,27.82-7.69,28.47-12.58,66.28-26.09,26.73-9.08,39.77-14,58.89-16.06,27.82-2.8,50.2,2.09,67.59,5.58,20.43,4.2,34.77,9.79,61.93,21.2,35.86,14,38.47,18.39,55.2,24C450.82,90.06,478,95,515.79,88"/></g></g></svg>