<svg xmlns="http://www.w3.org/2000/svg" viewBox="0 0 285.51 127.01"><defs><style>.cls-1,.cls-2,.cls-3{isolation:isolate;}.cls-2,.cls-3{font-size:50.31px;fill:#1d71b8;font-family:Roboto-Black, Roboto;font-weight:800;}.cls-3{letter-spacing:0.01em;}.cls-4,.cls-5,.cls-6{fill:none;stroke-miterlimit:10;stroke-width:8px;}.cls-4{stroke:#009fe3;}.cls-5{stroke:#ec643f;}.cls-6{stroke:#36a9e1;}</style></defs><g id="Lag_2" data-name="Lag 2"><g id="Lag_1-2" data-name="Lag 1"><g id="Lag_2-2" data-name="Lag 2"><g id="Lag_1-2-2" data-name="Lag 1-2"><g class="cls-1"><text class="cls-2" transform="translate(0.81 113.38) scale(0.86 1)">UNGBA</text><text class="cls-3" transform="translate(147.33 113.38) scale(0.86 1)">L</text><text class="cls-2" transform="translate(171.27 113.38) scale(0.86 1)">ANCE</text></g><path class="cls-4" d="M.79,62a137.19,137.19,0,0,0,30.8,2.65A135.55,135.55,0,0,0,67.78,59c15.34-4.18,15.7-6.83,36.55-14.16,14.74-4.94,21.93-7.61,32.47-8.73,15.34-1.52,27.68,1.13,37.27,3,11.27,2.28,19.17,5.31,34.15,11.51,19.77,7.61,21.21,10,30.44,13,10.3,3,25.28,5.69,46.13,1.89"/><path class="cls-5" d="M.79,30.39A137.19,137.19,0,0,0,31.59,33a135.55,135.55,0,0,0,36.19-5.69c15.34-4.18,15.7-6.83,36.55-14.16,14.74-4.94,21.93-7.61,32.47-8.73,15.34-1.54,27.68,1.13,37.27,3,11.27,2.28,19.17,5.32,34.15,11.51,19.77,7.61,21.21,10,30.44,13,10.3,3,25.28,5.69,46.13,1.89"/><path class="cls-6" d="M.79,46.07a137.78,137.78,0,0,0,30.8,2.66A135.27,135.27,0,0,0,67.78,43c15.34-4.17,15.7-6.83,36.55-14.17,14.74-4.93,21.93-7.6,32.47-8.72,15.34-1.52,27.68,1.14,37.27,3,11.27,2.28,19.17,5.32,34.15,11.52,19.77,7.6,21.21,10,30.44,13,10.3,3,25.29,5.71,46.13,1.91"/></g></g></g></g></svg>